<?xml version="1.0" encoding="UTF-8"?>
<svg version="1.1" xmlns="http://www.w3.org/2000/svg" width="512" height="512">
<path d="M0 0 C1.01201477 0.00054382 2.02402954 0.00108765 3.06671143 0.00164795 C19.59887291 0.04238923 35.523992 0.95817716 51.75 4.375 C52.78125 4.58930664 53.8125 4.80361328 54.875 5.02441406 C101.10680927 14.94980561 143.72188765 37.60106665 177.75 70.375 C178.7390332 71.32318604 178.7390332 71.32318604 179.74804688 72.29052734 C189.23630305 81.43497479 197.9762044 90.73234009 205.75 101.375 C206.60806152 102.52605017 207.46613451 103.67709177 208.32421875 104.828125 C214.36236829 113.01930614 219.72095521 121.53304105 224.75 130.375 C225.11448242 131.00680176 225.47896484 131.63860352 225.85449219 132.28955078 C240.78473018 158.37464001 250.26385054 187.71085114 254.75 217.375 C254.92660156 218.49745117 255.10320312 219.61990234 255.28515625 220.77636719 C256.94211371 232.38986367 257.14659181 243.90652741 257.125 255.625 C257.12512085 256.63468842 257.1252417 257.64437683 257.12536621 258.68466187 C257.08715098 281.16344026 254.59331123 302.61799009 248.75 324.375 C251.39 324.705 254.03 325.035 256.75 325.375 C256.75 336.265 256.75 347.155 256.75 358.375 C249.82 358.375 242.89 358.375 235.75 358.375 C234.76 361.345 233.77 364.315 232.75 367.375 C231.37255029 370.35180685 229.97235591 373.234049 228.4375 376.125 C228.00945068 376.93283936 227.58140137 377.74067871 227.14038086 378.57299805 C216.27083553 398.60574476 202.54280879 416.9778387 186.75 433.375 C186.11787598 434.03435547 185.48575195 434.69371094 184.83447266 435.37304688 C175.69002521 444.86130305 166.39265991 453.6012044 155.75 461.375 C154.59894983 462.23306152 153.44790823 463.09113451 152.296875 463.94921875 C144.10569386 469.98736829 135.59195895 475.34595521 126.75 480.375 C126.11819824 480.73948242 125.48639648 481.10396484 124.83544922 481.47949219 C98.75035999 496.40973018 69.41414886 505.88885054 39.75 510.375 C38.62754883 510.55160156 37.50509766 510.72820312 36.34863281 510.91015625 C24.73552257 512.5670586 13.21820055 512.77373513 1.5 512.75 C-0.01802216 512.74918427 -0.01802216 512.74918427 -1.56671143 512.74835205 C-18.09887291 512.70761077 -34.023992 511.79182284 -50.25 508.375 C-51.796875 508.05354004 -51.796875 508.05354004 -53.375 507.72558594 C-99.60680927 497.80019439 -142.22188765 475.14893335 -176.25 442.375 C-176.90935547 441.74287598 -177.56871094 441.11075195 -178.24804688 440.45947266 C-187.73630305 431.31502521 -196.4762044 422.01765991 -204.25 411.375 C-205.10806152 410.22394983 -205.96613451 409.07290823 -206.82421875 407.921875 C-214.90352965 396.96171268 -221.73538539 385.35264441 -228.1875 373.375 C-228.56527588 372.68108154 -228.94305176 371.98716309 -229.33227539 371.2722168 C-229.68539795 370.60488525 -230.03852051 369.93755371 -230.40234375 369.25 C-230.71163818 368.66992188 -231.02093262 368.08984375 -231.33959961 367.4921875 C-232.59980897 364.56149949 -233.37359827 361.44240604 -234.25 358.375 C-241.18 358.375 -248.11 358.375 -255.25 358.375 C-255.25 347.19168496 -255.25 347.19168496 -253.32421875 343.46484375 C-247.30090347 330.54432541 -246.84425145 321.92939866 -250.58203125 308.21875 C-255.02423349 291.36811019 -255.80076848 274.0880899 -255.6875 256.75 C-255.68445862 255.75297058 -255.68141724 254.75594116 -255.67828369 253.72869873 C-255.60464151 237.32351292 -254.6400833 221.47402572 -251.25 205.375 C-251.03569336 204.34375 -250.82138672 203.3125 -250.60058594 202.25 C-240.67519439 156.01819073 -218.02393335 113.40311235 -185.25 79.375 C-184.61787598 78.71564453 -183.98575195 78.05628906 -183.33447266 77.37695312 C-174.19002521 67.88869695 -164.89265991 59.1487956 -154.25 51.375 C-153.09894983 50.51693848 -151.94790823 49.65886549 -150.796875 48.80078125 C-142.60569386 42.76263171 -134.09195895 37.40404479 -125.25 32.375 C-124.61819824 32.01051758 -123.98639648 31.64603516 -123.33544922 31.27050781 C-97.25035999 16.34026982 -67.91414886 6.86114946 -38.25 2.375 C-37.12754883 2.19839844 -36.00509766 2.02179687 -34.84863281 1.83984375 C-23.23552257 0.1829414 -11.71820055 -0.02373513 0 0 Z " fill="#AA00AA" transform="translate(255.25,-0.375)"/>
<path d="M0 0 C1.29349365 0.00523682 2.5869873 0.01047363 3.91967773 0.01586914 C4.9496714 0.01799156 4.9496714 0.01799156 6.00047302 0.02015686 C8.20144949 0.0257706 10.40232557 0.03832532 12.60327148 0.05102539 C14.09220231 0.05603863 15.58113473 0.06060184 17.07006836 0.06469727 C20.72700223 0.07574446 24.38387707 0.09301826 28.04077148 0.11352539 C51.20494639 49.02091437 71.41274779 99.13046245 90.11791992 149.90405273 C91.90892433 154.76304887 93.7148748 159.61641021 95.52272034 164.46916199 C97.12077432 168.75962514 98.71559722 173.05128447 100.30966187 177.3432312 C101.08427894 179.42810072 101.85968084 181.51267883 102.63589478 183.59695435 C103.71030555 186.48409627 104.78043258 189.37278906 105.84936523 192.26196289 C106.17353424 193.13069534 106.49770325 193.9994278 106.83169556 194.89448547 C107.12426239 195.68783798 107.41682922 196.48119049 107.71826172 197.29858398 C107.97502182 197.99067963 108.23178192 198.68277527 108.49632263 199.39584351 C109.04077148 201.11352539 109.04077148 201.11352539 109.04077148 203.11352539 C96.17077148 203.11352539 83.30077148 203.11352539 70.04077148 203.11352539 C68.74139648 199.66915039 67.44202148 196.22477539 66.10327148 192.67602539 C65.71534424 191.65065674 65.32741699 190.62528809 64.92773438 189.56884766 C60.50050575 177.79514427 56.30302389 165.9531154 52.04077148 154.11352539 C24.98077148 153.78352539 -2.07922852 153.45352539 -29.95922852 153.11352539 C-30.61922852 156.08352539 -31.27922852 159.05352539 -31.95922852 162.11352539 C-32.42007496 163.64878277 -32.91022423 165.1762794 -33.45556641 166.68359375 C-33.87093407 167.844105 -33.87093407 167.844105 -34.29469299 169.02806091 C-34.73385292 170.22858849 -34.73385292 170.22858849 -35.18188477 171.45336914 C-35.48742783 172.30153702 -35.79297089 173.1497049 -36.10777283 174.02357483 C-37.0739696 176.70127607 -38.04786684 179.37610371 -39.02172852 182.05102539 C-39.67910606 183.87181697 -40.33601143 185.69277909 -40.99243164 187.51391602 C-41.6176646 189.24388488 -42.24330106 190.97370798 -42.86938477 192.70336914 C-43.16418228 193.51789047 -43.4589798 194.3324118 -43.76271057 195.1716156 C-45.84032098 200.87571032 -45.84032098 200.87571032 -46.95922852 203.11352539 C-58.50922852 203.11352539 -70.05922852 203.11352539 -81.95922852 203.11352539 C-81.95922852 191.86317884 -81.95922852 191.86317884 -80.45532227 187.95727539 C-80.1259668 187.07813477 -79.79661133 186.19899414 -79.45727539 185.29321289 C-79.10729492 184.40891602 -78.75731445 183.52461914 -78.39672852 182.61352539 C-77.91236328 181.33348633 -77.91236328 181.33348633 -77.41821289 180.02758789 C-76.28479711 177.04832355 -75.12369665 174.08079355 -73.95922852 171.11352539 C-70.31906715 161.81991184 -66.71594545 152.51508936 -63.22485352 143.16430664 C-46.80867023 99.21647678 -29.35515894 55.75631523 -9.64672852 13.17602539 C-9.36315491 12.56304596 -9.0795813 11.95006653 -8.78741455 11.31851196 C-3.60370519 0.13824956 -3.60370519 0.13824956 0 0 Z " fill="#FEFDFE" transform="translate(81.959228515625,154.886474609375)"/>
<path d="M0 0 C-0.58853312 4.31966413 -1.64259573 8.02105787 -3.28515625 12.0546875 C-3.73310547 13.16328125 -4.18105469 14.271875 -4.64257812 15.4140625 C-5.34543945 17.12722656 -5.34543945 17.12722656 -6.0625 18.875 C-6.53494141 20.0403125 -7.00738281 21.205625 -7.49414062 22.40625 C-8.65732791 25.27309544 -9.82610058 28.13752807 -11 31 C-14.3289056 29.68561342 -17.53525425 28.25903972 -20.75 26.6875 C-31.50825951 21.78813046 -43.13398287 18.23700434 -55 18 C-55.95108643 17.96350342 -55.95108643 17.96350342 -56.92138672 17.92626953 C-73.55631172 17.30530433 -88.25844492 20.07209504 -101.3125 31.25 C-115.95574796 45.30751804 -122.66450299 64.48939636 -123.203125 84.50390625 C-123.35123354 96.06017008 -123.13560365 106.80333802 -120 118 C-119.70996094 119.051875 -119.41992188 120.10375 -119.12109375 121.1875 C-114.64071924 135.8846281 -106.63044188 148.60610983 -93.07495117 156.41625977 C-82.78072965 161.71825381 -72.78154484 162.56403321 -61.375 162.3125 C-60.03386825 162.30096094 -58.69272011 162.29119009 -57.3515625 162.28320312 C-49.80406051 162.19743606 -42.55710996 161.68701 -35 161 C-35 136.58 -35 112.16 -35 87 C-23.12 87 -11.24 87 1 87 C1 119.67 1 152.34 1 186 C-37.17199605 196.60333224 -79.98298321 203.89139902 -116.3125 183.6875 C-138.45257584 169.96604569 -152.37858762 148.56645966 -158.83642578 123.59887695 C-161.22105677 113.19881587 -161.36744341 102.8031092 -161.375 92.1875 C-161.37699402 91.44850464 -161.37898804 90.70950928 -161.38104248 89.94812012 C-161.37702735 76.79672831 -160.80385598 63.51080814 -156.375 51 C-156.11630127 50.25218262 -155.85760254 49.50436523 -155.59106445 48.73388672 C-146.82387654 24.375712 -130.08195609 4.36927969 -106.5625 -6.8125 C-75.69570393 -20.88342459 -28.3530504 -20.20154841 0 0 Z " fill="#FEFCFE" transform="translate(355,166)"/>
<path d="M0 0 C11.55 0 23.1 0 35 0 C35 56.43 35 112.86 35 171 C78.065 170.505 78.065 170.505 122 170 C122 180.89 122 191.78 122 203 C81.74 203 41.48 203 0 203 C0 136.01 0 69.02 0 0 Z " fill="#FEFEFE" transform="translate(390,155)"/>
<path d="M0 0 C2.73080543 3.28738018 4.26989652 6.65802798 5.8984375 10.59765625 C6.30582153 11.57979347 6.30582153 11.57979347 6.72143555 12.58177185 C7.61293744 14.73921715 8.49462378 16.90049289 9.375 19.0625 C9.82954559 20.17141602 9.82954559 20.17141602 10.29327393 21.30273438 C15.20162099 33.28827041 19.86348009 45.35991294 24.375 57.5 C24.80459015 58.65304123 24.80459015 58.65304123 25.24285889 59.82937622 C26.04926517 61.99919016 26.85019697 64.17092042 27.6484375 66.34375 C27.88836426 66.99113632 28.12829102 67.63852264 28.37548828 68.30552673 C30 72.7665977 30 72.7665977 30 75 C10.53 75 -8.94 75 -29 75 C-28.11046124 70.5523062 -26.85220963 66.52163076 -25.296875 62.2890625 C-24.8853141 61.15912621 -24.8853141 61.15912621 -24.46543884 60.00636292 C-23.56549975 57.54396205 -22.65855679 55.08423334 -21.75 52.625 C-21.44164215 51.78740143 -21.1332843 50.94980286 -20.81558228 50.08682251 C-16.36094021 38.01184159 -11.68445779 26.04843034 -6.6875 14.1875 C-6.40555786 13.51720764 -6.12361572 12.84691528 -5.83312988 12.15631104 C-1.21777297 1.21777297 -1.21777297 1.21777297 0 0 Z " fill="#AA02AA" transform="translate(93,202)"/>
</svg>
